<mxfile host="Electron" agent="Mozilla/5.0 (Windows NT 10.0; Win64; x64) AppleWebKit/537.36 (KHTML, like Gecko) draw.io/24.7.17 Chrome/128.0.6613.36 Electron/32.0.1 Safari/537.36" version="24.7.17">
  <diagram name="Page-1" id="-hfQYTGBIGC2IBwUTKeI">
    <mxGraphModel dx="1344" dy="1658" grid="1" gridSize="10" guides="0" tooltips="1" connect="1" arrows="0" fold="1" page="0" pageScale="1" pageWidth="827" pageHeight="1169" math="0" shadow="0">
      <root>
        <mxCell id="0" />
        <mxCell id="1" value="Hexagon" style="locked=1;" parent="0" />
        <mxCell id="WYxq5w56mi98Xdl97QRf-29" value="&lt;b&gt;Persistence Adapters&lt;/b&gt;" style="html=1;whiteSpace=wrap;rounded=1;horizontal=1;verticalAlign=top;movable=1;cloneable=0;deletable=1;connectable=1;allowArrows=0;resizable=1;rotatable=1;recursiveResize=0;expand=0;container=1;collapsible=0;dropTarget=1;editable=1;locked=0;" parent="1" vertex="1">
          <mxGeometry x="1120" y="280" width="260" height="200" as="geometry" />
        </mxCell>
        <mxCell id="WYxq5w56mi98Xdl97QRf-25" value="&lt;b&gt;Web Adapters&lt;/b&gt;" style="html=1;whiteSpace=wrap;rounded=1;horizontal=1;verticalAlign=top;movable=1;cloneable=0;deletable=1;connectable=1;allowArrows=0;resizable=1;rotatable=1;container=1;collapsible=0;recursiveResize=0;expand=0;dropTarget=1;editable=1;locked=0;" parent="1" vertex="1">
          <mxGeometry x="-140" y="280" width="260" height="200" as="geometry" />
        </mxCell>
        <mxCell id="jC72QDiSUMgHh-S-kuxz-1" value="" style="shape=hexagon;perimeter=hexagonPerimeter2;whiteSpace=wrap;html=1;fixedSize=1;size=150;strokeWidth=2;fillColor=none;recursiveResize=0;connectable=1;editable=1;movable=1;resizable=1;rotatable=1;deletable=1;locked=0;allowArrows=0;cloneable=0;pointerEvents=0;expand=0;" parent="1" vertex="1">
          <mxGeometry x="200" y="240" width="840" height="560" as="geometry" />
        </mxCell>
        <mxCell id="WYxq5w56mi98Xdl97QRf-21" value="" style="group;movable=1;cloneable=0;deletable=1;editable=1;resizable=1;rotatable=1;locked=0;connectable=1;" parent="1" vertex="1" connectable="0">
          <mxGeometry x="360" y="620" width="80" height="80" as="geometry" />
        </mxCell>
        <mxCell id="WYxq5w56mi98Xdl97QRf-18" value="Application" style="text;html=1;align=center;verticalAlign=bottom;whiteSpace=wrap;rounded=0;horizontal=0;movable=1;cloneable=0;deletable=1;editable=1;resizable=1;rotatable=1;locked=0;connectable=1;" parent="WYxq5w56mi98Xdl97QRf-21" vertex="1">
          <mxGeometry width="40" height="80" as="geometry" />
        </mxCell>
        <mxCell id="WYxq5w56mi98Xdl97QRf-19" value="Domain" style="text;html=1;align=center;verticalAlign=top;whiteSpace=wrap;rounded=0;horizontal=0;movable=1;cloneable=0;deletable=1;editable=1;resizable=1;rotatable=1;locked=0;connectable=1;" parent="WYxq5w56mi98Xdl97QRf-21" vertex="1">
          <mxGeometry x="40" width="40" height="80" as="geometry" />
        </mxCell>
        <mxCell id="WYxq5w56mi98Xdl97QRf-17" value="" style="rounded=1;whiteSpace=wrap;html=1;fillColor=none;dashed=1;container=1;collapsible=0;recursiveResize=0;movable=1;cloneable=0;deletable=1;connectable=1;allowArrows=0;dropTarget=0;resizable=1;rotatable=1;pointerEvents=0;expand=0;editable=1;locked=0;" parent="1" vertex="1">
          <mxGeometry x="400" y="540" width="440" height="240" as="geometry" />
        </mxCell>
        <mxCell id="WYxq5w56mi98Xdl97QRf-14" value="&lt;b&gt;Entities&lt;/b&gt;" style="rounded=1;whiteSpace=wrap;html=1;verticalAlign=top;container=1;recursiveResize=0;autosize=0;rotatable=1;deletable=1;collapsible=0;movable=1;cloneable=0;connectable=1;allowArrows=0;resizable=1;dropTarget=1;editable=1;locked=0;" parent="WYxq5w56mi98Xdl97QRf-17" vertex="1">
          <mxGeometry x="40" y="20" width="160" height="200" as="geometry">
            <mxRectangle x="400" y="220" width="80" height="30" as="alternateBounds" />
          </mxGeometry>
        </mxCell>
        <mxCell id="WYxq5w56mi98Xdl97QRf-15" value="&lt;b&gt;Value Objects&lt;/b&gt;" style="rounded=1;whiteSpace=wrap;html=1;verticalAlign=top;container=1;recursiveResize=0;autosize=0;rotatable=1;deletable=1;collapsible=0;movable=1;cloneable=0;connectable=1;allowArrows=0;resizable=1;expand=0;dropTarget=1;editable=1;locked=0;" parent="WYxq5w56mi98Xdl97QRf-17" vertex="1">
          <mxGeometry x="240" y="20" width="160" height="200" as="geometry">
            <mxRectangle x="400" y="220" width="80" height="30" as="alternateBounds" />
          </mxGeometry>
        </mxCell>
        <mxCell id="WYxq5w56mi98Xdl97QRf-28" value="&lt;b&gt;Output Ports&lt;/b&gt;" style="html=1;whiteSpace=wrap;rounded=1;horizontal=1;verticalAlign=top;movable=1;cloneable=0;deletable=1;connectable=1;allowArrows=0;resizable=1;rotatable=1;recursiveResize=0;expand=0;container=1;dropTarget=1;collapsible=0;editable=1;locked=0;" parent="1" vertex="1">
          <mxGeometry x="880" y="560" width="160" height="200" as="geometry" />
        </mxCell>
        <mxCell id="WYxq5w56mi98Xdl97QRf-27" value="&lt;b&gt;Output Ports&lt;/b&gt;" style="html=1;whiteSpace=wrap;rounded=1;horizontal=1;verticalAlign=top;movable=1;cloneable=0;deletable=1;connectable=1;allowArrows=0;resizable=1;rotatable=1;dropTarget=1;expand=0;recursiveResize=0;container=1;collapsible=0;editable=1;locked=0;" parent="1" vertex="1">
          <mxGeometry x="880" y="280" width="160" height="200" as="geometry" />
        </mxCell>
        <mxCell id="WYxq5w56mi98Xdl97QRf-26" value="&lt;b&gt;Input Ports&lt;/b&gt;" style="html=1;whiteSpace=wrap;rounded=1;horizontal=1;verticalAlign=top;movable=1;cloneable=0;deletable=1;connectable=1;allowArrows=0;resizable=1;rotatable=1;container=1;collapsible=0;recursiveResize=0;expand=0;dropTarget=1;editable=1;locked=0;" parent="1" vertex="1">
          <mxGeometry x="200" y="280" width="160" height="200" as="geometry" />
        </mxCell>
        <mxCell id="WYxq5w56mi98Xdl97QRf-33" value="" style="endArrow=block;html=1;rounded=0;strokeWidth=2;endFill=1;exitX=1;exitY=0.5;exitDx=0;exitDy=0;entryX=0;entryY=0.5;entryDx=0;entryDy=0;movable=1;cloneable=0;deletable=1;editable=1;resizable=1;rotatable=1;locked=0;connectable=1;" parent="1" source="WYxq5w56mi98Xdl97QRf-25" target="WYxq5w56mi98Xdl97QRf-26" edge="1">
          <mxGeometry width="50" height="50" relative="1" as="geometry">
            <mxPoint x="60" y="660" as="sourcePoint" />
            <mxPoint x="90" y="600" as="targetPoint" />
          </mxGeometry>
        </mxCell>
        <mxCell id="WYxq5w56mi98Xdl97QRf-34" value="" style="endArrow=block;html=1;rounded=0;strokeWidth=2;endFill=1;entryX=0;entryY=0.5;entryDx=0;entryDy=0;exitX=1;exitY=0.5;exitDx=0;exitDy=0;movable=1;cloneable=0;deletable=1;editable=1;resizable=1;rotatable=1;locked=0;connectable=1;" parent="1" source="jC72QDiSUMgHh-S-kuxz-7" target="WYxq5w56mi98Xdl97QRf-27" edge="1">
          <mxGeometry width="50" height="50" relative="1" as="geometry">
            <mxPoint x="950" y="190" as="sourcePoint" />
            <mxPoint x="1030" y="190" as="targetPoint" />
          </mxGeometry>
        </mxCell>
        <mxCell id="WYxq5w56mi98Xdl97QRf-35" value="" style="endArrow=block;html=1;rounded=0;strokeWidth=2;endFill=1;entryX=-0.016;entryY=0.205;entryDx=0;entryDy=0;exitX=1;exitY=0.75;exitDx=0;exitDy=0;entryPerimeter=0;movable=1;cloneable=0;deletable=1;editable=1;resizable=1;rotatable=1;locked=0;connectable=1;" parent="1" source="jC72QDiSUMgHh-S-kuxz-7" target="WYxq5w56mi98Xdl97QRf-28" edge="1">
          <mxGeometry width="50" height="50" relative="1" as="geometry">
            <mxPoint x="1000" y="230" as="sourcePoint" />
            <mxPoint x="890" y="390" as="targetPoint" />
          </mxGeometry>
        </mxCell>
        <mxCell id="jC72QDiSUMgHh-S-kuxz-7" value="&lt;b&gt;Services&lt;/b&gt;" style="rounded=1;whiteSpace=wrap;html=1;verticalAlign=top;container=1;recursiveResize=0;autosize=0;rotatable=1;deletable=1;collapsible=0;dropTarget=1;movable=1;cloneable=0;connectable=1;allowArrows=0;resizable=1;editable=1;locked=0;expand=0;" parent="1" vertex="1">
          <mxGeometry x="440" y="280" width="360" height="200" as="geometry">
            <mxRectangle x="400" y="220" width="80" height="30" as="alternateBounds" />
          </mxGeometry>
        </mxCell>
        <mxCell id="WYxq5w56mi98Xdl97QRf-37" value="" style="endArrow=open;html=1;rounded=0;strokeWidth=2;endFill=0;movable=1;cloneable=0;deletable=1;editable=1;resizable=1;rotatable=1;locked=0;connectable=1;exitX=0.5;exitY=1;exitDx=0;exitDy=0;entryX=0.5;entryY=0;entryDx=0;entryDy=0;dashed=1;" parent="1" source="jC72QDiSUMgHh-S-kuxz-7" target="WYxq5w56mi98Xdl97QRf-17" edge="1">
          <mxGeometry width="50" height="50" relative="1" as="geometry">
            <mxPoint x="520" y="880" as="sourcePoint" />
            <mxPoint x="550" y="870" as="targetPoint" />
          </mxGeometry>
        </mxCell>
        <mxCell id="WYxq5w56mi98Xdl97QRf-39" value="" style="endArrow=block;html=1;rounded=0;strokeWidth=2;endFill=0;exitX=0;exitY=0.5;exitDx=0;exitDy=0;entryX=1;entryY=0.5;entryDx=0;entryDy=0;movable=1;cloneable=0;deletable=1;editable=1;resizable=1;rotatable=1;locked=0;connectable=1;" parent="1" source="WYxq5w56mi98Xdl97QRf-29" target="WYxq5w56mi98Xdl97QRf-27" edge="1">
          <mxGeometry width="50" height="50" relative="1" as="geometry">
            <mxPoint x="960" y="160" as="sourcePoint" />
            <mxPoint x="1040" y="160" as="targetPoint" />
          </mxGeometry>
        </mxCell>
        <mxCell id="WYxq5w56mi98Xdl97QRf-40" value="" style="endArrow=block;html=1;rounded=0;strokeWidth=2;endFill=0;exitX=1;exitY=0.5;exitDx=0;exitDy=0;entryX=0.5;entryY=1;entryDx=0;entryDy=0;movable=1;cloneable=0;deletable=1;editable=1;resizable=1;rotatable=1;locked=0;connectable=1;" parent="1" source="qZ0eZMEyJfM4uQIMgLbZ-2" target="WYxq5w56mi98Xdl97QRf-28" edge="1">
          <mxGeometry width="50" height="50" relative="1" as="geometry">
            <mxPoint x="920" y="970" as="sourcePoint" />
            <mxPoint x="840" y="970" as="targetPoint" />
            <Array as="points">
              <mxPoint x="960" y="1020" />
            </Array>
          </mxGeometry>
        </mxCell>
        <mxCell id="WYxq5w56mi98Xdl97QRf-41" value="" style="endArrow=block;html=1;rounded=0;strokeWidth=2;endFill=0;exitX=0;exitY=0.5;exitDx=0;exitDy=0;entryX=1;entryY=0.5;entryDx=0;entryDy=0;movable=1;cloneable=0;deletable=1;editable=1;resizable=1;rotatable=1;locked=0;connectable=1;" parent="1" source="jC72QDiSUMgHh-S-kuxz-7" target="WYxq5w56mi98Xdl97QRf-26" edge="1">
          <mxGeometry width="50" height="50" relative="1" as="geometry">
            <mxPoint x="430" y="370" as="sourcePoint" />
            <mxPoint x="350" y="370" as="targetPoint" />
          </mxGeometry>
        </mxCell>
        <mxCell id="qZ0eZMEyJfM4uQIMgLbZ-1" value="&lt;b&gt;Input Ports&lt;/b&gt;" style="html=1;whiteSpace=wrap;rounded=1;horizontal=1;verticalAlign=top;movable=1;cloneable=0;deletable=1;connectable=1;allowArrows=0;resizable=1;rotatable=1;container=1;collapsible=0;recursiveResize=0;expand=0;dropTarget=1;editable=1;locked=0;" parent="1" vertex="1">
          <mxGeometry x="200" y="560" width="160" height="200" as="geometry" />
        </mxCell>
        <mxCell id="qZ0eZMEyJfM4uQIMgLbZ-2" value="&lt;b&gt;Web Socket Adapters&lt;/b&gt;" style="html=1;whiteSpace=wrap;rounded=1;horizontal=1;verticalAlign=top;movable=1;cloneable=0;deletable=1;connectable=1;allowArrows=0;resizable=1;rotatable=1;container=1;collapsible=0;recursiveResize=0;expand=0;dropTarget=1;editable=1;locked=0;" parent="1" vertex="1">
          <mxGeometry x="490" y="920" width="260" height="200" as="geometry" />
        </mxCell>
        <mxCell id="qZ0eZMEyJfM4uQIMgLbZ-4" value="" style="endArrow=block;html=1;rounded=0;strokeWidth=2;endFill=0;exitX=0;exitY=0.75;exitDx=0;exitDy=0;movable=1;cloneable=0;deletable=1;editable=1;resizable=1;rotatable=1;locked=0;connectable=1;entryX=1;entryY=0.25;entryDx=0;entryDy=0;" parent="1" source="jC72QDiSUMgHh-S-kuxz-7" target="qZ0eZMEyJfM4uQIMgLbZ-1" edge="1">
          <mxGeometry width="50" height="50" relative="1" as="geometry">
            <mxPoint x="450" y="390" as="sourcePoint" />
            <mxPoint x="370" y="390" as="targetPoint" />
          </mxGeometry>
        </mxCell>
        <mxCell id="CGtY9VmHE7Hv5IUMjYf7-1" value="" style="endArrow=block;html=1;rounded=0;strokeWidth=2;endFill=1;exitX=0;exitY=0.5;exitDx=0;exitDy=0;entryX=0.5;entryY=1;entryDx=0;entryDy=0;movable=1;cloneable=0;deletable=1;editable=1;resizable=1;rotatable=1;locked=0;connectable=1;" parent="1" source="qZ0eZMEyJfM4uQIMgLbZ-2" target="qZ0eZMEyJfM4uQIMgLbZ-1" edge="1">
          <mxGeometry width="50" height="50" relative="1" as="geometry">
            <mxPoint x="230" y="980" as="sourcePoint" />
            <mxPoint x="310" y="980" as="targetPoint" />
          </mxGeometry>
        </mxCell>
        <mxCell id="qZ0eZMEyJfM4uQIMgLbZ-8" value="Classes" style="" parent="0" />
        <mxCell id="jT7z8qOBedk_gwqTqXHK-2" value="«interface»&lt;br&gt;&lt;b&gt;Broadcaster&lt;/b&gt;" style="html=1;whiteSpace=wrap;resizable=1;deletable=1;rotatable=0;" parent="qZ0eZMEyJfM4uQIMgLbZ-8" vertex="1">
          <mxGeometry x="600" y="1160" width="120" height="40" as="geometry" />
        </mxCell>
        <mxCell id="jT7z8qOBedk_gwqTqXHK-6" value="&lt;b&gt;EnsembleTimerHolder&lt;/b&gt;" style="html=1;whiteSpace=wrap;resizable=1;deletable=1;rotatable=0;" parent="qZ0eZMEyJfM4uQIMgLbZ-8" vertex="1">
          <mxGeometry x="360" y="1240" width="160" height="40" as="geometry" />
        </mxCell>
        <mxCell id="jT7z8qOBedk_gwqTqXHK-8" value="&lt;b&gt;WebSocketBroadcaster&lt;/b&gt;" style="html=1;whiteSpace=wrap;resizable=1;deletable=1;rotatable=0;" parent="qZ0eZMEyJfM4uQIMgLbZ-8" vertex="1">
          <mxGeometry x="360" y="1160" width="170" height="40" as="geometry" />
        </mxCell>
        <mxCell id="jT7z8qOBedk_gwqTqXHK-10" value="" style="endArrow=block;html=1;rounded=0;endFill=1;" parent="qZ0eZMEyJfM4uQIMgLbZ-8" edge="1">
          <mxGeometry width="50" height="50" relative="1" as="geometry">
            <mxPoint x="800" y="1240" as="sourcePoint" />
            <mxPoint x="800" y="1160" as="targetPoint" />
          </mxGeometry>
        </mxCell>
        <mxCell id="jT7z8qOBedk_gwqTqXHK-11" value="" style="endArrow=block;html=1;rounded=0;endFill=0;" parent="qZ0eZMEyJfM4uQIMgLbZ-8" edge="1">
          <mxGeometry width="50" height="50" relative="1" as="geometry">
            <mxPoint x="880" y="1240" as="sourcePoint" />
            <mxPoint x="880" y="1160" as="targetPoint" />
          </mxGeometry>
        </mxCell>
        <mxCell id="ddScbMke0Dci8xd1vCAv-1" value="&lt;font style=&quot;font-size: 33px; font-style: normal;&quot;&gt;INPUTS&lt;/font&gt;" style="text;html=1;align=center;verticalAlign=middle;whiteSpace=wrap;rounded=0;fontStyle=3;fontColor=#999999;labelBackgroundColor=none;textShadow=0;" vertex="1" parent="qZ0eZMEyJfM4uQIMgLbZ-8">
          <mxGeometry x="-40" y="480" width="200" height="80" as="geometry" />
        </mxCell>
        <mxCell id="ddScbMke0Dci8xd1vCAv-2" value="&lt;font style=&quot;font-size: 33px; font-style: normal;&quot;&gt;OUTPUTS&lt;/font&gt;" style="text;html=1;align=center;verticalAlign=middle;whiteSpace=wrap;rounded=0;fontStyle=3;fontColor=#999999;labelBackgroundColor=none;textShadow=0;" vertex="1" parent="qZ0eZMEyJfM4uQIMgLbZ-8">
          <mxGeometry x="1080" y="480" width="200" height="80" as="geometry" />
        </mxCell>
      </root>
    </mxGraphModel>
  </diagram>
</mxfile>
